# Blender v2.77 (sub 0) OBJ File: ''
# www.blender.org
o Cube
v 0.212500 0.637500 -0.117815
v 0.212500 0.637500 0.117815
v -0.212500 0.637500 0.117815
v -0.212500 0.637500 -0.117815
v 0.212500 1.275000 -0.117815
v 0.212500 1.275000 0.117815
v -0.212500 1.275000 0.117815
v -0.212500 1.275000 -0.117815
v 0.318750 1.275000 -0.117815
v 0.318750 0.637500 -0.117815
v 0.106250 0.000000 -0.117815
v 0.106250 0.637500 -0.117815
v 0.181380 0.000000 -0.083308
v 0.181380 0.637500 -0.083308
v 0.212500 0.000000 0.000000
v 0.212500 0.637500 0.000000
v 0.181380 0.000000 0.083308
v 0.181380 0.637500 0.083308
v 0.106250 0.000000 0.117815
v 0.106250 0.637500 0.117815
v 0.031120 0.000000 0.083308
v 0.031120 0.637500 0.083308
v 0.000000 0.000000 -0.000000
v 0.000000 0.637500 -0.000000
v 0.031120 0.000000 -0.083308
v 0.031120 0.637500 -0.083308
v 0.393880 0.637500 -0.083308
v 0.393880 1.275000 -0.083308
v 0.425000 0.637500 0.000000
v 0.425000 1.275000 0.000000
v 0.393880 0.637500 0.083308
v 0.393880 1.275000 0.083308
v 0.318750 0.637500 0.117815
v 0.318750 1.275000 0.117815
v 0.243620 0.637500 0.083308
v 0.243620 1.275000 0.083308
v 0.212500 0.637500 -0.000000
v 0.212500 1.275000 -0.000000
v 0.243620 0.637500 -0.083308
v 0.243620 1.275000 -0.083308
v -0.318750 1.275000 0.117815
v -0.318750 0.637500 0.117815
v -0.106250 0.000000 0.117815
v -0.106250 0.637500 0.117815
v -0.181380 0.000000 0.083308
v -0.181380 0.637500 0.083308
v -0.212500 0.000000 -0.000000
v -0.212500 0.637500 -0.000000
v -0.181380 0.000000 -0.083308
v -0.181380 0.637500 -0.083308
v -0.106250 0.000000 -0.117815
v -0.106250 0.637500 -0.117815
v -0.031120 0.000000 -0.083308
v -0.031120 0.637500 -0.083308
v 0.000000 0.000000 -0.000000
v 0.000000 0.637500 -0.000000
v -0.031120 0.000000 0.083308
v -0.031120 0.637500 0.083308
v -0.393880 0.637500 0.083308
v -0.393880 1.275000 0.083308
v -0.425000 0.637500 0.000000
v -0.425000 1.275000 0.000000
v -0.393880 0.637500 -0.083308
v -0.393880 1.275000 -0.083308
v -0.318750 0.637500 -0.117815
v -0.318750 1.275000 -0.117815
v -0.243620 0.637500 -0.083308
v -0.243620 1.275000 -0.083308
v -0.212500 0.637500 0.000000
v -0.212500 1.275000 0.000000
v -0.243620 0.637500 0.083308
v -0.243620 1.275000 0.083308
v -0.106250 1.671530 0.000000
v -0.184030 1.593750 0.000000
v -0.212500 1.487500 0.000000
v -0.184030 1.381250 0.000000
v -0.106250 1.303470 0.000000
v -0.092015 1.671530 -0.058908
v -0.159375 1.593750 -0.102031
v -0.184030 1.487500 -0.117815
v -0.159375 1.381250 -0.102031
v -0.092015 1.303470 -0.058908
v -0.053125 1.671530 -0.102031
v -0.092015 1.593750 -0.176723
v -0.106250 1.487500 -0.204062
v -0.092015 1.381250 -0.176723
v -0.053125 1.303470 -0.102031
v -0.000000 1.671530 -0.117815
v -0.000000 1.593750 -0.204062
v -0.000000 1.487500 -0.235630
v -0.000000 1.381250 -0.204062
v -0.000000 1.303470 -0.117815
v -0.000000 1.700000 0.000000
v 0.053125 1.671530 -0.102031
v 0.092015 1.593750 -0.176723
v 0.106250 1.487500 -0.204062
v 0.092015 1.381250 -0.176723
v 0.053125 1.303470 -0.102031
v 0.092015 1.671530 -0.058908
v 0.159375 1.593750 -0.102031
v 0.184030 1.487500 -0.117815
v 0.159375 1.381250 -0.102031
v 0.092015 1.303470 -0.058908
v 0.106250 1.671530 0.000000
v 0.184030 1.593750 0.000000
v 0.212500 1.487500 0.000000
v 0.184030 1.381250 0.000000
v 0.106250 1.303470 -0.000000
v -0.000000 1.275000 0.000000
v 0.092015 1.671530 0.058908
v 0.159375 1.593750 0.102031
v 0.184030 1.487500 0.117815
v 0.159375 1.381250 0.102031
v 0.092015 1.303470 0.058908
v 0.053125 1.671530 0.102031
v 0.092015 1.593750 0.176723
v 0.106250 1.487500 0.204062
v 0.092015 1.381250 0.176723
v 0.053125 1.303470 0.102031
v -0.000000 1.671530 0.117815
v -0.000000 1.593750 0.204062
v -0.000000 1.487500 0.235630
v -0.000000 1.381250 0.204062
v -0.000000 1.303470 0.117815
v -0.053125 1.671530 0.102031
v -0.092015 1.593750 0.176723
v -0.106250 1.487500 0.204062
v -0.092015 1.381250 0.176723
v -0.053125 1.303470 0.102031
v -0.092015 1.671530 0.058908
v -0.159375 1.593750 0.102031
v -0.184030 1.487500 0.117815
v -0.159375 1.381250 0.102031
v -0.092015 1.303470 0.058908
vt 0.8529 0.1997
vt 0.9524 0.0049
vt 0.9524 0.1997
vt 0.1143 0.6353
vt 0.2138 0.8301
vt 0.1143 0.8301
vt 0.1044 0.5990
vt 0.0050 0.3068
vt 0.1044 0.3068
vt 0.2138 0.0049
vt 0.4126 0.2971
vt 0.2138 0.2971
vt 0.4226 0.0049
vt 0.5220 0.2971
vt 0.4226 0.2971
vt 0.2038 0.2971
vt 0.0050 0.0049
vt 0.2038 0.0049
vt 0.9950 0.6696
vt 0.9301 0.6960
vt 0.9032 0.6696
vt 0.5671 0.0049
vt 0.6023 0.2971
vt 0.5671 0.2971
vt 0.8130 0.9009
vt 0.7778 0.6087
vt 0.8130 0.6087
vt 0.7628 0.2971
vt 0.7276 0.0049
vt 0.7628 0.0049
vt 0.6474 0.0049
vt 0.6825 0.2971
vt 0.6474 0.2971
vt 0.7276 0.2971
vt 0.6924 0.0049
vt 0.6122 0.0049
vt 0.6122 0.2971
vt 0.6624 0.3068
vt 0.6976 0.5990
vt 0.6624 0.5990
vt 0.9681 0.3068
vt 0.9681 0.3968
vt 0.9301 0.3068
vt 0.4568 0.7774
vt 0.4217 0.4852
vt 0.4568 0.4852
vt 0.6976 0.3068
vt 0.7327 0.5990
vt 0.6624 0.6087
vt 0.6976 0.9009
vt 0.6624 0.9009
vt 0.4920 0.7774
vt 0.4920 0.4852
vt 0.7427 0.3068
vt 0.7778 0.5990
vt 0.7427 0.5990
vt 0.2062 0.9035
vt 0.1412 0.9298
vt 0.1143 0.9035
vt 0.6976 0.6087
vt 0.7327 0.9009
vt 0.7778 0.3068
vt 0.8130 0.5990
vt 0.7778 0.9009
vt 0.7427 0.6087
vt 0.5319 0.0049
vt 0.5319 0.2971
vt 0.9301 0.7057
vt 0.9950 0.7693
vt 0.9032 0.7321
vt 0.9681 0.8054
vt 0.9950 0.8691
vt 0.9681 0.8954
vt 0.6173 0.3068
vt 0.6525 0.5990
vt 0.6173 0.5990
vt 0.0753 0.9009
vt 0.0401 0.6087
vt 0.0753 0.6087
vt 0.6525 0.9009
vt 0.6173 0.6087
vt 0.6525 0.6087
vt 0.3258 0.7774
vt 0.2906 0.4852
vt 0.3258 0.4852
vt 0.6173 0.9009
vt 0.5822 0.6087
vt 0.3609 0.7774
vt 0.3609 0.4852
vt 0.8932 0.5990
vt 0.8581 0.3068
vt 0.8932 0.3068
vt 0.9681 0.4065
vt 0.9681 0.4965
vt 0.9301 0.4065
vt 0.5371 0.4852
vt 0.5722 0.7774
vt 0.5371 0.7774
vt 0.8581 0.5990
vt 0.8229 0.3068
vt 0.8430 0.2971
vt 0.8079 0.0049
vt 0.8430 0.0049
vt 0.5019 0.4852
vt 0.5019 0.7774
vt 0.8229 0.6087
vt 0.8581 0.9009
vt 0.8229 0.9009
vt 0.9301 0.5962
vt 0.9032 0.5326
vt 0.9301 0.5063
vt 0.8079 0.2971
vt 0.7727 0.0049
vt 0.8581 0.6087
vt 0.8932 0.9009
vt 0.0401 0.9009
vt 0.0050 0.6087
vt 0.5822 0.3068
vt 0.5822 0.5990
vt 0.9681 0.9951
vt 0.9032 0.9315
vt 0.9950 0.9688
vt 0.8529 0.0049
vt 0.2138 0.6353
vt 0.0050 0.5990
vt 0.4126 0.0049
vt 0.5220 0.0049
vt 0.0050 0.2971
vt 0.9032 0.6323
vt 0.9681 0.6060
vt 0.9301 0.6060
vt 0.9950 0.6323
vt 0.9681 0.6960
vt 0.6023 0.0049
vt 0.6825 0.0049
vt 0.6924 0.2971
vt 0.9301 0.3968
vt 0.9032 0.3704
vt 0.9032 0.3332
vt 0.9950 0.3332
vt 0.9950 0.3704
vt 0.4217 0.7774
vt 0.7327 0.3068
vt 0.1143 0.8662
vt 0.1793 0.8399
vt 0.1412 0.8399
vt 0.2062 0.8662
vt 0.1793 0.9298
vt 0.7327 0.6087
vt 0.8130 0.3068
vt 0.7427 0.9009
vt 0.9681 0.7957
vt 0.9301 0.7957
vt 0.9032 0.7693
vt 0.9681 0.7057
vt 0.9950 0.7321
vt 0.9301 0.8954
vt 0.9032 0.8318
vt 0.9032 0.8691
vt 0.9301 0.8054
vt 0.9950 0.8318
vt 0.6525 0.3068
vt 0.2906 0.7774
vt 0.5822 0.9009
vt 0.9301 0.4965
vt 0.9032 0.4702
vt 0.9032 0.4329
vt 0.9950 0.4329
vt 0.9950 0.4702
vt 0.5722 0.4852
vt 0.8229 0.5990
vt 0.9681 0.5063
vt 0.9950 0.5699
vt 0.9950 0.5326
vt 0.9681 0.5962
vt 0.9032 0.5699
vt 0.7727 0.2971
vt 0.8932 0.6087
vt 0.0050 0.9009
vt 0.9301 0.9051
vt 0.9681 0.9051
vt 0.9950 0.9315
vt 0.9301 0.9951
vt 0.9032 0.9688
vt 0.1889 0.5525
vt 0.2386 0.5525
vt 0.2320 0.5769
vt 0.3767 0.3912
vt 0.3270 0.4333
vt 0.3270 0.3912
vt 0.2584 0.3286
vt 0.2104 0.3412
vt 0.2198 0.3068
vt 0.2906 0.4155
vt 0.2906 0.3912
vt 0.4265 0.4333
vt 0.3767 0.4399
vt 0.2327 0.3538
vt 0.1975 0.3883
vt 0.2635 0.5947
vt 0.2138 0.5947
vt 0.4265 0.4642
vt 0.3767 0.4755
vt 0.1847 0.3412
vt 0.3270 0.4642
vt 0.1752 0.3068
vt 0.4431 0.4399
vt 0.4861 0.4755
vt 0.4613 0.4755
vt 0.4364 0.3912
vt 0.4861 0.3425
vt 0.4861 0.3912
vt 0.1624 0.3538
vt 0.1889 0.6012
vt 0.4861 0.4399
vt 0.4431 0.3425
vt 0.4861 0.3068
vt 0.5292 0.4399
vt 0.5110 0.4755
vt 0.5358 0.3912
vt 0.1495 0.3757
vt 0.1641 0.5947
vt 0.5292 0.3425
vt 0.1143 0.5947
vt 0.1459 0.5769
vt 0.5722 0.3912
vt 0.1495 0.4009
vt 0.5607 0.4399
vt 0.1143 0.4101
vt 0.1143 0.3664
vt 0.4283 0.7872
vt 0.4714 0.8359
vt 0.4217 0.8359
vt 0.1624 0.4227
vt 0.1392 0.5525
vt 0.4283 0.8846
vt 0.4714 0.8846
vt 0.1366 0.4479
vt 0.4465 0.9202
vt 0.4714 0.9202
vt 0.1847 0.4353
vt 0.1459 0.5282
vt 0.5144 0.8846
vt 0.1752 0.4698
vt 0.4962 0.9202
vt 0.5144 0.7872
vt 0.5211 0.8359
vt 0.1641 0.5104
vt 0.2748 0.9202
vt 0.3245 0.8780
vt 0.3245 0.9089
vt 0.2104 0.4353
vt 0.2198 0.4698
vt 0.1143 0.5104
vt 0.2251 0.8780
vt 0.2748 0.8846
vt 0.1889 0.5038
vt 0.3245 0.8359
vt 0.2327 0.4227
vt 0.2584 0.4479
vt 0.3609 0.8359
vt 0.3609 0.8602
vt 0.2251 0.8359
vt 0.2748 0.8359
vt 0.2138 0.5104
vt 0.2748 0.7872
vt 0.3245 0.7937
vt 0.2807 0.4101
vt 0.3609 0.8115
vt 0.2455 0.4009
vt 0.3270 0.3181
vt 0.3767 0.3425
vt 0.3270 0.3490
vt 0.2807 0.3664
vt 0.2635 0.5104
vt 0.2320 0.5282
vt 0.4265 0.3181
vt 0.3767 0.3068
vt 0.2455 0.3757
vt 0.2906 0.3668
vt 0.4265 0.3490
vt 0.4265 0.3912
vt 0.2320 0.6256
vt 0.4613 0.3068
vt 0.5110 0.3068
vt 0.1459 0.6256
vt 0.5607 0.3425
vt 0.4714 0.7872
vt 0.1459 0.4795
vt 0.2251 0.9089
vt 0.2251 0.7937
vt 0.2320 0.4795
vn 0.0000 -1.0000 0.0000
vn 0.0000 1.0000 -0.0000
vn 1.0000 -0.0000 0.0000
vn -0.0000 -0.0000 1.0000
vn -1.0000 -0.0000 -0.0000
vn 0.0000 0.0000 -1.0000
vn 0.4174 0.0000 -0.9087
vn -0.9368 0.0000 0.3499
vn 0.9368 0.0000 -0.3499
vn -0.4174 0.0000 0.9087
vn 0.9368 0.0000 0.3499
vn 0.4174 0.0000 0.9087
vn -0.4174 0.0000 -0.9087
vn -0.9368 0.0000 -0.3499
vn -0.5281 -0.8491 0.0000
vn -0.4629 -0.8531 -0.2404
vn -0.7702 -0.4908 -0.4072
vn -0.8751 -0.4839 0.0000
vn -0.8751 0.4839 0.0000
vn -0.4629 0.8531 -0.2404
vn -0.7702 0.4908 -0.4072
vn -0.8829 0.0000 -0.4695
vn -0.5281 0.8491 0.0000
vn -0.2743 -0.8614 -0.4273
vn -0.4601 0.5051 -0.7302
vn -0.5305 0.0000 -0.8477
vn -0.2743 0.8614 -0.4273
vn -0.4601 -0.5051 -0.7302
vn 0.0000 -0.8658 -0.5004
vn 0.0000 0.5125 -0.8587
vn 0.0000 0.8658 -0.5004
vn 0.0000 -0.5125 -0.8587
vn 0.4601 -0.5051 -0.7302
vn 0.2743 -0.8614 -0.4273
vn 0.5305 0.0000 -0.8477
vn 0.2743 0.8614 -0.4273
vn 0.4601 0.5051 -0.7302
vn 0.7702 -0.4908 -0.4072
vn 0.4629 -0.8531 -0.2404
vn 0.8829 0.0000 -0.4695
vn 0.4629 0.8531 -0.2404
vn 0.7702 0.4908 -0.4072
vn 0.5281 0.8491 0.0000
vn 0.5281 -0.8491 0.0000
vn 0.8751 -0.4839 0.0000
vn 0.8751 0.4839 0.0000
vn 0.4629 0.8531 0.2404
vn 0.4629 -0.8531 0.2404
vn 0.7702 -0.4908 0.4072
vn 0.7702 0.4908 0.4072
vn 0.8829 0.0000 0.4695
vn 0.2743 -0.8614 0.4273
vn 0.4601 -0.5051 0.7302
vn 0.2743 0.8614 0.4273
vn 0.4601 0.5051 0.7302
vn 0.5305 0.0000 0.8477
vn 0.0000 -0.8658 0.5004
vn 0.0000 -0.5125 0.8587
vn 0.0000 0.8658 0.5004
vn 0.0000 0.5125 0.8587
vn -0.2743 -0.8614 0.4273
vn -0.5305 0.0000 0.8477
vn -0.4601 -0.5051 0.7302
vn -0.4601 0.5051 0.7302
vn -0.2743 0.8614 0.4273
vn -0.8829 0.0000 0.4695
vn -0.7702 -0.4908 0.4072
vn -0.7702 0.4908 0.4072
vn -0.4629 -0.8531 0.2404
vn -0.4629 0.8531 0.2404
s off
f 2/1/1 4/2/1 1/3/1
f 8/4/2 6/5/2 5/6/2
f 5/7/3 2/8/3 1/9/3
f 6/10/4 3/11/4 2/12/4
f 7/13/5 4/14/5 3/15/5
f 1/16/6 8/17/6 5/18/6
f 36/19/2 32/20/2 30/21/2
f 12/22/7 13/23/7 11/24/7
f 36/25/8 37/26/8 35/27/8
f 14/28/9 15/29/9 13/30/9
f 34/31/10 35/32/10 33/33/10
f 16/34/11 17/35/11 15/29/11
f 32/36/12 33/33/12 31/37/12
f 18/38/12 19/39/12 17/40/12
f 31/41/1 37/42/1 29/43/1
f 30/44/11 31/45/11 29/46/11
f 20/47/10 21/48/10 19/39/10
f 40/49/13 10/50/13 39/51/13
f 28/52/9 29/46/9 27/53/9
f 22/54/8 23/55/8 21/56/8
f 22/57/2 18/58/2 16/59/2
f 9/60/7 27/61/7 10/50/7
f 24/62/14 25/63/14 23/55/14
f 38/64/14 39/65/14 37/26/14
f 26/66/13 11/24/13 25/67/13
f 17/68/1 23/69/1 15/70/1
f 68/71/2 64/72/2 62/73/2
f 44/74/10 45/75/10 43/76/10
f 68/77/9 69/78/9 67/79/9
f 46/80/8 47/81/8 45/82/8
f 66/83/7 67/84/7 65/85/7
f 48/86/14 49/87/14 47/81/14
f 64/88/13 65/85/13 63/89/13
f 50/90/13 51/91/13 49/92/13
f 63/93/1 69/94/1 61/95/1
f 62/96/14 63/97/14 61/98/14
f 52/99/7 53/100/7 51/91/7
f 72/101/12 42/102/12 71/103/12
f 60/104/8 61/98/8 59/105/8
f 54/106/9 55/107/9 53/108/9
f 54/109/2 50/110/2 48/111/2
f 41/112/10 59/113/10 42/102/10
f 56/114/11 57/115/11 55/107/11
f 70/116/11 71/117/11 69/78/11
f 58/118/12 43/76/12 57/119/12
f 49/120/1 55/121/1 47/122/1
f 2/1/1 3/123/1 4/2/1
f 8/4/2 7/124/2 6/5/2
f 5/7/3 6/125/3 2/8/3
f 6/10/4 7/126/4 3/11/4
f 7/13/5 8/127/5 4/14/5
f 1/16/6 4/128/6 8/17/6
f 30/21/2 28/129/2 40/130/2
f 9/131/2 40/130/2 28/129/2
f 38/132/2 36/19/2 30/21/2
f 34/133/2 32/20/2 36/19/2
f 30/21/2 40/130/2 38/132/2
f 12/22/7 14/134/7 13/23/7
f 36/25/8 38/64/8 37/26/8
f 14/28/9 16/34/9 15/29/9
f 34/31/10 36/135/10 35/32/10
f 16/34/11 18/136/11 17/35/11
f 32/36/12 34/31/12 33/33/12
f 18/38/12 20/47/12 19/39/12
f 39/137/1 10/138/1 27/139/1
f 27/139/1 29/43/1 39/137/1
f 31/41/1 33/140/1 35/141/1
f 35/141/1 37/42/1 31/41/1
f 39/137/1 29/43/1 37/42/1
f 30/44/11 32/142/11 31/45/11
f 20/47/10 22/143/10 21/48/10
f 40/49/13 9/60/13 10/50/13
f 28/52/9 30/44/9 29/46/9
f 22/54/8 24/62/8 23/55/8
f 16/59/2 14/144/2 26/145/2
f 12/146/2 26/145/2 14/144/2
f 24/147/2 22/57/2 16/59/2
f 20/148/2 18/58/2 22/57/2
f 16/59/2 26/145/2 24/147/2
f 9/60/7 28/149/7 27/61/7
f 24/62/14 26/150/14 25/63/14
f 38/64/14 40/151/14 39/65/14
f 26/66/13 12/22/13 11/24/13
f 25/152/1 11/153/1 13/154/1
f 13/154/1 15/70/1 25/152/1
f 17/68/1 19/155/1 21/156/1
f 21/156/1 23/69/1 17/68/1
f 25/152/1 15/70/1 23/69/1
f 62/73/2 60/157/2 72/158/2
f 41/159/2 72/158/2 60/157/2
f 70/160/2 68/71/2 62/73/2
f 66/161/2 64/72/2 68/71/2
f 62/73/2 72/158/2 70/160/2
f 44/74/10 46/162/10 45/75/10
f 68/77/9 70/116/9 69/78/9
f 46/80/8 48/86/8 47/81/8
f 66/83/7 68/163/7 67/84/7
f 48/86/14 50/164/14 49/87/14
f 64/88/13 66/83/13 65/85/13
f 50/90/13 52/99/13 51/91/13
f 71/165/1 42/166/1 59/167/1
f 59/167/1 61/95/1 71/165/1
f 63/93/1 65/168/1 67/169/1
f 67/169/1 69/94/1 63/93/1
f 71/165/1 61/95/1 69/94/1
f 62/96/14 64/170/14 63/97/14
f 52/99/7 54/171/7 53/100/7
f 72/101/12 41/112/12 42/102/12
f 60/104/8 62/96/8 61/98/8
f 54/106/9 56/114/9 55/107/9
f 48/111/2 46/172/2 58/173/2
f 44/174/2 58/173/2 46/172/2
f 56/175/2 54/109/2 48/111/2
f 52/176/2 50/110/2 54/109/2
f 48/111/2 58/173/2 56/175/2
f 41/112/10 60/177/10 59/113/10
f 56/114/11 58/178/11 57/115/11
f 70/116/11 72/179/11 71/117/11
f 58/118/12 44/74/12 43/76/12
f 57/180/1 43/181/1 45/182/1
f 45/182/1 47/122/1 57/180/1
f 49/120/1 51/183/1 53/184/1
f 53/184/1 55/121/1 49/120/1
f 57/180/1 47/122/1 55/121/1
s 1
f 109/185/1 77/186/15 82/187/16
f 75/188/5 81/189/17 76/190/18
f 74/191/19 78/192/20 79/193/21
f 76/190/18 82/194/16 77/195/15
f 75/188/5 79/196/21 80/197/22
f 73/198/23 93/199/2 78/192/20
f 81/200/17 87/201/24 82/187/16
f 80/197/22 84/202/25 85/203/26
f 78/192/20 93/199/2 83/204/27
f 109/185/1 82/187/16 87/201/24
f 80/197/22 86/205/28 81/189/17
f 79/193/21 83/204/27 84/206/25
f 86/207/28 92/208/29 87/209/24
f 85/210/26 89/211/30 90/212/6
f 83/204/27 93/199/2 88/213/31
f 109/185/1 87/201/24 92/214/29
f 85/210/26 91/215/32 86/207/28
f 84/216/25 88/217/31 89/211/30
f 92/208/29 97/218/33 98/219/34
f 89/211/30 96/220/35 90/212/6
f 88/213/31 93/199/2 94/221/36
f 109/185/1 92/214/29 98/222/34
f 91/215/32 96/220/35 97/218/33
f 88/217/31 95/223/37 89/211/30
f 98/222/34 102/224/38 103/225/39
f 95/223/37 101/226/40 96/220/35
f 94/221/36 93/199/2 99/227/41
f 109/185/1 98/222/34 103/225/39
f 97/218/33 101/226/40 102/228/38
f 94/221/36 100/229/42 95/230/37
f 100/231/42 106/232/3 101/233/40
f 99/227/41 93/199/2 104/234/43
f 109/185/1 103/225/39 108/235/44
f 102/236/38 106/232/3 107/237/45
f 99/227/41 105/238/46 100/229/42
f 103/239/39 107/237/45 108/240/44
f 104/234/43 93/199/2 110/241/47
f 109/185/1 108/235/44 114/242/48
f 106/232/3 113/243/49 107/237/45
f 105/238/46 110/241/47 111/244/50
f 107/237/45 114/245/48 108/240/44
f 106/232/3 111/246/50 112/247/51
f 109/185/1 114/242/48 119/248/52
f 112/249/51 118/250/53 113/251/49
f 111/244/50 115/252/54 116/253/55
f 113/254/49 119/248/52 114/242/48
f 112/249/51 116/255/55 117/256/56
f 110/241/47 93/199/2 115/252/54
f 109/185/1 119/248/52 124/257/57
f 117/256/56 123/258/58 118/250/53
f 116/253/55 120/259/59 121/260/60
f 118/250/53 124/261/57 119/262/52
f 117/256/56 121/263/60 122/264/4
f 115/252/54 93/199/2 120/259/59
f 109/185/1 124/257/57 129/265/61
f 123/258/58 127/266/62 128/267/63
f 120/259/59 126/268/64 121/260/60
f 124/261/57 128/267/63 129/269/61
f 121/263/60 127/266/62 122/264/4
f 120/259/59 93/199/2 125/270/65
f 128/271/63 132/272/66 133/273/67
f 125/270/65 131/274/68 126/268/64
f 129/265/61 133/275/67 134/276/69
f 126/277/64 132/272/66 127/278/62
f 125/270/65 93/199/2 130/279/70
f 109/185/1 129/265/61 134/276/69
f 130/279/70 74/191/19 131/274/68
f 134/280/69 76/190/18 77/195/15
f 131/281/68 75/188/5 132/272/66
f 130/279/70 93/199/2 73/198/23
f 109/185/1 134/276/69 77/186/15
f 133/273/67 75/188/5 76/190/18
f 75/188/5 80/197/22 81/189/17
f 74/191/19 73/198/23 78/192/20
f 76/190/18 81/189/17 82/194/16
f 75/188/5 74/282/19 79/196/21
f 81/200/17 86/283/28 87/201/24
f 80/197/22 79/196/21 84/202/25
f 80/197/22 85/203/26 86/205/28
f 79/193/21 78/192/20 83/204/27
f 86/207/28 91/215/32 92/208/29
f 85/210/26 84/216/25 89/211/30
f 85/210/26 90/212/6 91/215/32
f 84/216/25 83/284/27 88/217/31
f 92/208/29 91/215/32 97/218/33
f 89/211/30 95/223/37 96/220/35
f 91/215/32 90/212/6 96/220/35
f 88/217/31 94/285/36 95/223/37
f 98/222/34 97/286/33 102/224/38
f 95/223/37 100/287/42 101/226/40
f 97/218/33 96/220/35 101/226/40
f 94/221/36 99/227/41 100/229/42
f 100/231/42 105/288/46 106/232/3
f 102/236/38 101/233/40 106/232/3
f 99/227/41 104/234/43 105/238/46
f 103/239/39 102/236/38 107/237/45
f 106/232/3 112/247/51 113/243/49
f 105/238/46 104/234/43 110/241/47
f 107/237/45 113/243/49 114/245/48
f 106/232/3 105/288/46 111/246/50
f 112/249/51 117/256/56 118/250/53
f 111/244/50 110/241/47 115/252/54
f 113/254/49 118/289/53 119/248/52
f 112/249/51 111/290/50 116/255/55
f 117/256/56 122/264/4 123/258/58
f 116/253/55 115/252/54 120/259/59
f 118/250/53 123/258/58 124/261/57
f 117/256/56 116/255/55 121/263/60
f 123/258/58 122/264/4 127/266/62
f 120/259/59 125/270/65 126/268/64
f 124/261/57 123/258/58 128/267/63
f 121/263/60 126/291/64 127/266/62
f 128/271/63 127/278/62 132/272/66
f 125/270/65 130/279/70 131/274/68
f 129/265/61 128/292/63 133/275/67
f 126/277/64 131/281/68 132/272/66
f 130/279/70 73/198/23 74/191/19
f 134/280/69 133/273/67 76/190/18
f 131/281/68 74/282/19 75/188/5
f 133/273/67 132/272/66 75/188/5
