# Tree.obj
o Tree
v  0.00 5.0  0.00
v  0.00 1.5 -1.10
v -0.75 1.5  0.40
v  0.75 1.5  0.40
v  0.00 4.0  0.00
v  0.00 0.0 -0.37
v -0.25 0.0  0.13
v  0.25 0.0  0.13
vt 0.5 1.0
vt 0.0 0.25
vt 0.5 0.25
vt 1.0 0.25
vt 0.0 0.25
vt 0.0 0.0
vt 0.5 0.0
vt 1.0 0.0
vn  0.00  1.00  0.00
vn  0.00 -0.49 -0.87
vn -0.76 -0.49  0.43
vn  0.76 -0.49  0.43
vn  0.00  1.00  0.00
vn  0.00 -0.49 -0.87
vn -0.76 -0.49  0.43
vn  0.76 -0.49  0.43
s 1
f 1/1/1 2/2/2 3/3/3
f 1/1/1 3/3/3 4/4/4
f 1/1/1 4/4/4 2/2/2
f 4/4/4 3/3/3 2/2/2
f 5/5/5 6/6/6 7/7/7
f 5/5/5 7/7/7 8/8/8
f 5/5/5 8/8/8 6/6/6